<?xml version="1.0" encoding="UTF-8" standalone="no"?>
<!-- Created with Inkscape (http://www.inkscape.org/) -->

<svg
   xmlns:dc="http://purl.org/dc/elements/1.1/"
   xmlns:cc="http://creativecommons.org/ns#"
   xmlns:rdf="http://www.w3.org/1999/02/22-rdf-syntax-ns#"
   xmlns:svg="http://www.w3.org/2000/svg"
   xmlns="http://www.w3.org/2000/svg"
   xmlns:sodipodi="http://sodipodi.sourceforge.net/DTD/sodipodi-0.dtd"
   xmlns:inkscape="http://www.inkscape.org/namespaces/inkscape"
   width="210mm"
   height="297mm"
   id="svg4028"
   version="1.1"
   inkscape:version="0.48.4 r9939"
   sodipodi:docname="Nouveau document 12">
  <defs
     id="defs4030">
    <clipPath
       id="clipPath4069"
       clipPathUnits="userSpaceOnUse">
      <path
         id="path4071"
         d="m 0,1296 1728,0 L 1728,0 0,0 0,1296 z" />
    </clipPath>
  </defs>
  <sodipodi:namedview
     id="base"
     pagecolor="#ffffff"
     bordercolor="#666666"
     borderopacity="1.0"
     inkscape:pageopacity="0.0"
     inkscape:pageshadow="2"
     inkscape:zoom="0.35"
     inkscape:cx="375"
     inkscape:cy="520"
     inkscape:document-units="px"
     inkscape:current-layer="layer1"
     showgrid="false"
     inkscape:window-width="1600"
     inkscape:window-height="1176"
     inkscape:window-x="1920"
     inkscape:window-y="24"
     inkscape:window-maximized="1" />
  <metadata
     id="metadata4033">
    <rdf:RDF>
      <cc:Work
         rdf:about="">
        <dc:format>image/svg+xml</dc:format>
        <dc:type
           rdf:resource="http://purl.org/dc/dcmitype/StillImage" />
        <dc:title></dc:title>
      </cc:Work>
    </rdf:RDF>
  </metadata>
  <g
     inkscape:label="Calque 1"
     inkscape:groupmode="layer"
     id="layer1">
    <g
       clip-path="url(#clipPath4069)"
       id="g4067"
       style="fill:#000000"
       transform="matrix(1.25,0,0,-1.25,-697.14061,1348.0754)">
      <g
         transform="translate(255.7075,150.8955)"
         id="g4073"
         style="fill:#000000">
        <path
           id="path4075"
           style="fill:#000000;stroke:none"
           d="m 0,0 1.935,2.53 27.167,35.518 -78.913,60.273 5.447,7.117 78.908,-60.278 23.467,30.603 1.405,3.203 0.872,3.059 1.651,4.398 1.042,8.763 C 62.813,122.005 41.3,145.94 14.651,148.954 l -6.162,4.004 -3.242,3.652 -3.946,6.296 c -0.906,2.133 -1.832,6.22 -1.935,8.536 -1.417,17.162 11.351,32.227 28.515,33.639 l 15.726,2.52 12.272,2.724 13.048,4.06 17.896,7.058 6.436,3.419 c 4.967,3.515 6.145,10.391 2.632,15.359 -2.13,3.314 -6.928,5.321 -10.781,4.512 l -15.054,-2.906 -16.252,-2.658 -17.73,-1.356 -8.479,-0.012 -3.73,1.262 c -0.717,0.565 -1.777,1.809 -2.223,2.61 -3.221,5.229 -1.589,12.078 3.644,15.301 l 13.82,5.395 14.735,6.21 6.432,3.422 13.113,8.035 5.482,4.861 c 4.064,4.518 3.699,11.47 -0.815,15.535 -2.257,2.264 -6.607,3.422 -9.692,2.571 L 44.519,294.92 24.717,290.743 c -2.735,-0.26 -6.607,1.154 -8.53,3.118 -4.916,4.468 -5.283,12.077 -0.814,16.997 l 8.467,8.488 2.701,4.679 c 1.703,6.022 -1.803,12.285 -7.823,13.984 -1.012,0.335 -2.884,0.523 -3.941,0.394 L 4.186,337.827 c -5.342,-0.736 -10.822,2.827 -12.322,8.003 -1.826,8.211 3.238,16.634 11.34,18.874 5.834,4.057 7.275,12.074 3.215,17.906 -1.448,2.379 -4.96,4.748 -7.711,5.203 l -12.452,0.055 c -2.778,0.196 -6.485,2.224 -8.145,4.454 -4.57,5.418 -3.882,13.521 1.54,18.089 l 10.898,5.747 c 5.165,4.495 5.71,12.324 1.217,17.486 -1.813,2.352 -5.769,4.273 -8.739,4.248 l -5.698,0.166 c -5.959,-0.188 -11.665,4.345 -12.828,10.192 -1.579,7.034 2.845,14.016 9.88,15.593 6.823,0.918 11.61,7.199 10.692,14.022 -0.599,5.556 -5.538,10.331 -11.11,10.742 l -6.899,0.414 c -4.744,-0.292 -9.74,3.087 -11.231,7.605 -2.236,6.033 0.842,12.741 6.878,14.978 l 8.687,3.458 c 5.76,1.153 9.803,6.776 9.06,12.606 -2.009,7.229 -9.533,11.768 -16.861,10.181 -1.488,0.107 -3.92,0.931 -5.168,1.752 -6.33,3.726 -8.438,11.887 -4.709,18.22 l 1.301,1.479 2.885,1.903 13.433,4.731 c 5.661,2.715 8.054,9.507 5.336,15.174 -0.625,1.526 -2.401,3.597 -3.813,4.456 l -1.867,0.634 -11.859,4.173 c -2.345,0.684 -5.182,3.102 -6.232,5.31 -3.087,5.596 -1.049,12.638 4.553,15.722 l 11.989,3.783 c 6.533,0.454 11.455,6.116 11,12.648 -0.087,4.008 -3.156,8.446 -6.875,9.941 l -6.932,2.666 -5.068,2.032 -3.384,4.183 -0.424,1.585 -0.216,5.03 5.093,35.855 4.924,30.155 -0.99,3.695 -0.949,1.438 -18.335,3.005 -13.934,1.353 -7.178,1.471 -11.384,-71.465 -8.375,1.713 10.996,70.797 -27.76,4.435 -3.063,0.49 -24.7,3.945 -1.892,-5.596 -2.176,-4.541 -2.602,-2.958 -0.913,-0.811 -2.74,-2.431 -3.024,-1.376 -0.526,-0.141 -2.779,-0.179 -2.781,-0.181 -3.977,0.068 -24.558,3.034 c -9.966,3.278 -20.701,-2.14 -23.983,-12.106 -3.277,-9.963 2.14,-20.703 12.104,-23.981 0.474,-0.162 1.407,-0.418 1.896,-0.514 l 27.52,-5.633 10.238,-2.344 c 4.614,-1.204 8.232,-5.984 8.152,-10.749 0.094,-6.288 -4.928,-11.467 -11.22,-11.562 l -34.903,3.656 -5.558,-0.363 -4.749,-1.273 c -9.422,-3.747 -14.021,-14.427 -10.27,-23.848 1.736,-5.153 7.496,-10.121 12.845,-11.082 l 38.916,-5.969 c 6.18,-1.367 11.349,-7.522 11.627,-13.846 l 0.136,-23.713 38.452,-2.135 -0.518,-8.621 -38.453,2.141 0.388,-30.997 1.576,-22.756 40.528,0.678 0.009,-8.477 -40,-0.539 2.771,-23.007 4.508,-31.585 41.825,2.158 0.679,-8.865 -41.299,-2.02 3.224,-18.359 8.697,-36.683 42.421,6.279 1.067,-8.198 -41.227,-6.52 4.913,-16.214 12.003,-36.361 40.377,9.685 2.261,-8.439 -39.319,-9.405 2.929,-8.826 16.827,-39.592 39.671,12.325 2.788,-8.299 -38.085,-11.903 3.598,-9.212 c 2.243,-4.208 2.471,-11.287 0.499,-15.629 -3.99,-10.377 -15.635,-15.553 -26.007,-11.564 -5.769,5.136 -14.605,4.626 -19.741,-1.141 -2.043,-2.037 -3.657,-6.171 -3.537,-9.05 l 0.462,-3.839 5.322,-9.312 0.99,-3.697 -0.837,-5.31 -0.245,-1.198 c -3.169,-5.334 -10.316,-7.753 -16.069,-5.436 l -2.535,1.016 -1.867,0.63 c -1.639,0.404 -4.585,0.416 -6.226,0.028 -7.072,-0.854 -12.112,-7.28 -11.257,-14.354 0.104,-1.489 0.943,-3.91 1.782,-5.146 l 6.521,-9.563 1.514,-3.549 c 0.316,-0.838 0.527,-2.396 0.445,-3.29 -0.236,-5.09 -4.557,-9.026 -9.646,-8.785 l -3.448,0.204 -7.18,1.467 c -6.951,2.305 -14.452,-1.458 -16.757,-8.407 -1.417,-3.605 -0.579,-8.979 1.867,-11.978 l 3.38,-4.185 6.624,-7.834 c 0.215,-0.383 0.548,-1.143 0.682,-1.563 1.814,-5.348 -1.051,-11.157 -6.398,-12.976 -9.462,1.727 -18.534,-4.544 -20.26,-14.007 -0.253,-1.157 -0.361,-3.312 -0.23,-4.487 l 0.691,-17.344 2.231,-14.666 c 2.818,-24.111 21.278,-57.236 40.298,-72.318 7.037,-8.006 21.447,-13.313 31.994,-11.783 l 8.234,-1.186 6.793,-2.138 6.02,-3.477 c 17.921,-21.436 49.826,-24.288 71.263,-6.367 1.782,1.416 4.819,4.44 6.241,6.215 L 0,0"
           inkscape:connector-curvature="0" />
      </g>
      <g
         transform="translate(352.0308,1177.6968)"
         id="g4077"
         style="fill:#000000">
        <path
           id="path4079"
           style="fill:#000000;stroke:none"
           d="m 0,0 -23.574,2.232 -6.825,-69.181 -8.464,0.741 6.827,69.18 -38.821,3.786 -3.213,-1.27 -0.905,-1.473 -9.038,-76.739 c -2.028,-19.397 -15.502,-48.206 -29.091,-62.195 l -8,-11.706 -11.619,-17.591 -7.502,-14.849 c -3.888,-4.349 -3.636,-11.125 0.563,-15.174 4.354,-4.246 11.323,-4.16 15.57,0.194 l 5.089,4.981 9.825,10.384 4.115,2.738 3.144,0.503 c 5.844,-0.324 10.93,-5.253 11.438,-11.079 l -0.555,-1.891 -1.591,-4.9 -11.632,-13.327 c -10.37,-10.708 -24.911,-33.121 -30.467,-46.953 -1.722,-3.748 -0.654,-8.973 2.399,-11.744 4.228,-4.161 11.032,-4.105 15.193,0.125 l 10.375,12.272 3.767,3.161 c 3.136,1.948 8.164,1.888 11.253,-0.142 5.406,-3.176 7.218,-10.132 4.042,-15.541 l -11.282,-13.746 -12.872,-18.644 -9.729,-18.144 -2.495,-6.371 c -1.633,-3.399 -0.88,-8.35 1.695,-11.108 3.822,-4.494 10.565,-5.036 15.059,-1.211 l 7.247,7.504 4.534,3.093 c 0.705,0.533 2.131,1.215 2.983,1.434 5.608,1.678 11.514,-1.508 13.19,-7.114 l 0.853,-3.561 -0.689,-3.429 -1.806,-2.943 -10.732,-11.855 -9.255,-12.759 -9.813,-14.648 c -3.023,-3.542 -3.24,-9.384 -0.49,-13.143 3.45,-5.041 10.328,-6.337 15.373,-2.887 l 9.555,7.303 c 4.495,3.496 11.183,2.91 15.002,-1.314 4.207,-4.541 3.933,-11.633 -0.61,-15.838 l -11.482,-16.055 -7.232,-11.772 -6.465,-11.838 c -1.913,-2.977 -1.965,-7.822 -0.113,-10.843 2.936,-5.378 9.678,-7.358 15.061,-4.421 l 9.906,6.886 c 3.4,2.528 8.907,2.596 12.372,0.153 5.198,-3.354 6.693,-10.285 3.343,-15.482 l -10.026,-12.693 -11.97,-17.172 -1.942,-4.482 c -1.247,-2.421 -1.281,-6.442 -0.074,-8.885 2.402,-5.696 8.973,-8.365 14.665,-5.961 l 5.794,4.146 4.817,1.907 3.566,0.847 c 5.729,-1.291 10.225,-7.025 10.114,-12.9 l -0.689,-3.428 -11.068,-15.703 -6.192,-8.763 -2.846,-5.952 -1.175,-4.55 c 0.246,-1.927 1.698,-4.68 3.154,-5.971 4.451,-4.438 11.657,-4.43 16.097,0.023 2.587,2.168 7.152,2.774 10.214,1.348 5.351,-2.16 7.935,-8.254 5.768,-13.601 l -10.358,-16.538 -4.657,-8.896 c -1.142,-1.449 -1.997,-4.249 -1.856,-6.088 0.092,-5.716 4.799,-10.267 10.514,-10.177 l 11.524,3.257 c 2.452,0.506 6.036,-0.437 7.923,-2.083 4.562,-3.538 5.395,-10.104 1.854,-14.667 l -6.895,-7.925 -5.289,-7.29 c -0.828,-1.085 -1.603,-3.222 -1.663,-4.586 -0.534,-5.418 3.428,-10.243 8.846,-10.775 l 8.601,0.801 c 3.585,2.092 8.877,1.486 11.901,-1.359 4.394,-3.83 4.85,-10.497 1.017,-14.893 l -7.595,-7.089 c -2.517,-1.873 -4.187,-5.921 -3.73,-9.029 0.536,-5.767 5.645,-10.009 11.416,-9.475 l 6.642,0.583 c 3.999,1.1 8.799,-0.931 10.796,-4.567 2.776,-4.692 1.225,-10.744 -3.464,-13.519 -3.669,-1.184 -6.957,-5.231 -7.358,-9.066 -0.988,-6.324 3.345,-12.248 9.668,-13.234 l 8.953,0.38 c 1.425,-0.091 3.689,-0.91 4.844,-1.746 5.237,-3.399 6.725,-10.401 3.325,-15.639 l -3.064,-3.996 c -2.67,-2.211 -4.271,-6.764 -3.571,-10.162 0.942,-6.281 6.801,-10.607 13.081,-9.664 2.051,0.646 5.398,0.351 7.308,-0.642 5.667,-2.53 8.211,-9.173 5.681,-14.837 l -3.617,-5.887 c -0.437,-0.827 -0.893,-2.419 -0.958,-3.352 -0.661,-5.814 3.515,-11.064 9.33,-11.723 2.189,0.986 5.888,1.041 8.106,0.12 6.156,-2.15 9.405,-8.879 7.259,-15.034 -3.859,-3.752 -4.43,-10.254 -1.28,-14.621 l 9.563,-14.79 15.595,-21.136 17.134,-21.269 22.818,-27.195 16.985,-18.542 27.016,-27.95 23.289,-21.809 33.109,-29.256 8.558,-8.502 28.612,-23.05 14.794,-12.534 c 3.516,-2.793 9.52,-3.315 13.466,-1.179 6.593,3.169 9.366,11.085 6.195,17.678 l -35.319,43.791 -21.212,27.83 -21.295,31.328 c -3.408,7.091 -11.927,10.075 -19.018,6.665 -0.147,-0.075 -0.437,-0.221 -0.584,-0.3 -2.302,-0.597 -5.986,-0.093 -8.044,1.1 -6.146,3.103 -8.617,10.607 -5.512,16.754 l 3.97,5.47 c 2.008,1.932 3.541,5.866 3.372,8.649 -0.009,7.033 -5.715,12.724 -12.749,12.716 l -8.666,-1.568 c -3.185,-0.864 -8.002,0.08 -10.629,2.08 -6.386,4.298 -8.076,12.958 -3.777,19.339 l 5.991,6.452 c 2.598,2.468 4.243,7.396 3.647,10.934 -0.833,7.554 -7.635,13.008 -15.191,12.174 l -9.923,-2.621 c -3.423,-0.775 -8.388,0.53 -10.993,2.877 -6.008,4.816 -6.974,13.59 -2.161,19.594 l 11.717,9.831 c 2.177,2.528 3.515,7.369 2.935,10.657 -0.926,8.113 -8.259,13.933 -16.373,13.002 l -10.272,-2.202 c -5.422,-1.533 -12.26,1 -15.37,5.702 -4.756,6.592 -3.272,15.793 3.325,20.552 l 10.257,6.467 4.184,3.511 c 0.859,1.246 1.855,3.717 2.099,5.213 1.81,8.655 -3.736,17.138 -12.389,18.948 l -5.455,-0.3 -6.774,-2.119 c -7.355,-3.156 -16.04,0.139 -19.443,7.385 -3.575,7.5 -0.39,16.476 7.112,20.054 l 9.637,3.808 c 6.622,1.634 12.039,8.395 12.185,15.214 -0.09,2.245 -1.282,5.852 -2.552,7.704 -5.15,8.413 -16.143,11.06 -24.558,5.909 l -5.099,-0.715 -3.499,-0.079 c -5.833,1.1 -11.266,6.692 -12.203,12.556 -1.805,8.794 3.861,17.388 12.655,19.191 l 6.709,1.352 c 7.731,1.081 13.784,8.214 13.592,16.021 -0.061,8.895 -7.324,16.058 -16.218,15.996 l -3.143,-0.5 -4.82,-1.904 c -6.622,-4.643 -16.188,-3.463 -21.476,2.655 l -3.796,5.369 -1.352,6.71 -25.711,-5.892 -2.34,8.731 26.064,5.475 -3.191,15.123 -0.645,3.046 -3.839,18.168 -2.769,12.645 -26.066,-5.471 -1.985,8.317 26.481,5.822 -1.348,6.707 -5.841,30.749 -1.717,11.393 -27.534,-4.57 -1.568,8.668 27.954,4.92 -1.285,7.475 -5.219,33.411 -0.796,8.597 -29.007,-3.663 -0.801,8.599 28.66,4.082 -0.517,7.407 -2.398,25.795 -1.779,10.624 -0.653,5.873 -30.411,-1.99 -0.379,8.949 30.412,1.989 -0.231,6.225 -0.165,6.992 -2.192,28.103 -0.449,8.18 -31.881,-1.087 0.39,8.882 31.112,1.155 -0.162,6.993 -0.043,12.796 -0.91,20.627 -0.029,8.531 -34.124,-0.117 0.39,8.882 33.707,-0.235 -0.165,6.991 0.624,42.589 -33.922,2.191 0.74,8.463 33.572,-1.771 -0.084,3.493 4.104,7.008 3.766,3.161 4.816,1.901 3.498,0.084 29.588,-2.979 c 10.749,0.738 19.506,9.993 19.65,20.768 -0.426,9.106 -7.946,17.691 -16.918,19.313 l -36.165,3.163 c -5.044,1.783 -8.172,7.406 -7.034,12.632 l 0.487,1.121 c 2.775,5.011 9.384,7.708 14.874,6.064 l 31.547,-2.757 c 1.226,-0.013 3.466,0.292 4.645,0.637 10.891,2.808 17.445,13.917 14.637,24.809 -3.014,8.456 -12.618,14.983 -21.586,14.684 l -25.812,1.869 c -1.207,-0.357 -3.373,-0.421 -4.601,-0.139 -6.065,1.092 -10.1,6.893 -9.008,12.96 1.084,4.365 5.551,8.113 10.04,8.424 l 40.431,-3.148 c 8.886,-0.143 17.392,6.712 19.139,15.428 2.43,10.681 -4.257,21.312 -14.938,23.746 l -31.478,3.528 -4.481,1.945 -4.418,2.709 -2.74,4.117 -4.577,9.705 L 29.87,-2.83 3.152,-0.297 0,0"
           inkscape:connector-curvature="0" />
      </g>
      <g
         transform="translate(475.7007,733.2466)"
         id="g4081"
         style="fill:#000000">
        <path
           id="path4083"
           style="fill:#000000;stroke:none"
           d="m 0,0 1.64,-8.737 2.184,-6.553 3.823,-6.008 4.915,-4.917 4.916,-2.728 7.099,-1.641 5.462,0 7.1,1.093 6.007,2.731 4.37,2.733 4.915,4.914 19.116,28.4 5.46,7.1 5.463,4.369 4.914,2.183 5.462,1.094 4.916,-0.547 6.552,-1.638 9.285,-5.461 3.278,-1.093 6.554,-1.638 5.461,0.545 5.462,1.093 6.008,3.276 4.914,4.916 3.824,6.008 3.822,3.822 4.369,2.731 6.555,1.639 8.738,0 7.646,0.547 6.007,2.183 6.008,3.824 4.916,4.914 3.277,6.008 2.184,8.739 0,4.915 -1.092,5.461 -5.463,12.563 -1.636,5.461 0,4.914 0.545,5.463 6.008,14.201 1.091,4.914 -0.545,5.461 -1.638,6.554 -2.731,4.37 -3.824,3.822 -33.315,21.847 -12.014,7.1 -7.101,4.369 -53.523,-83.562 -7.098,4.916 73.183,114.692 2.183,5.46 0,3.824 0.547,5.462 -0.547,2.185 0,3.275 -1.091,3.279 -1.092,2.183 -2.731,5.462 -1.638,2.184 -2.731,3.278 -5.462,4.37 -10.922,6.553 -37.684,-58.984 -7.648,4.915 38.232,58.985 -6.008,3.276 -12.016,7.646 -4.916,1.638 -6.554,0.547 -5.46,-1.093 -5.461,-1.092 -4.369,-2.731 -4.37,-3.276 -7.646,-8.739 -70.454,-110.868 -7.646,4.915 54.068,84.652 -7.645,4.916 -43.146,27.854 -4.369,2.184 -5.461,1.093 -3.278,0.546 -7.1,-1.091 -6.554,-2.186 -4.369,-3.276 -7.099,-8.193 -4.914,-5.46 -4.369,-2.731 -6.555,-2.186 -12.563,-1.093 c -15.025,-0.346 -26.923,-12.809 -26.576,-27.834 0.002,-0.992 0.178,-2.868 0.362,-3.842 l 1.091,-4.916 c 8.444,-9.547 8.444,-24.859 0,-34.406 l -1.638,-6.555 c -1.262,-11.021 5.556,-24.174 15.294,-29.492 10.173,-6.759 14.301,-21.086 9.283,-32.223 L -95.576,78.646 c -9.38,-14.185 -5.484,-33.288 8.701,-42.667 1.192,-0.836 3.6,-2.129 4.954,-2.663 l 7.099,-1.091 7.1,0 10.377,2.729 8.193,1.64 7.101,-1.092 1.637,-0.548 12.015,-7.645 38.777,60.624 7.646,-4.37 -38.777,-60.624 4.368,-3.276 6.009,-4.369 L -5.46,10.379 -2.731,6.01 -1.266,2.787 0,0"
           inkscape:connector-curvature="0" />
      </g>
      <g
         transform="translate(454.5537,575.583)"
         id="g4085"
         style="fill:#000000">
        <path
           id="path4087"
           style="fill:#000000;stroke:none"
           d="m 0,0 2.855,-4.324 1.942,-5.136 1.697,-6.334 1.04,-14.428 3.111,-11.609 3.705,-7.494 0.423,-1.583 18.956,-47.527 6.863,-29.836 2.612,-5.524 3.136,-5.38 3.037,-7.106 2.16,-10.169 1.556,-5.806 3.28,-5.908 4.862,-5.484 4.299,-3.374 6.525,-9.565 3.842,-8.021 8.428,-12.449 7.861,-10.337 7.257,-5.974 5.071,-2.036 3.73,-1.262 8.343,0.537 8.586,1.735 10.027,2.687 14.495,5.016 5.663,2.083 c 4.006,1.078 9.515,4.906 11.92,8.285 l -16.576,0.648 c 6.218,1.021 15.07,6.005 19.168,10.794 -6.547,-2.084 -17.636,-1.659 -24.006,0.92 6.966,0.612 16.799,5.584 21.423,10.832 -6.547,-2.085 -17.637,-1.658 -24.006,0.921 6.966,0.612 16.8,5.583 21.421,10.831 -6.545,-2.084 -17.635,-1.657 -24.003,0.921 l 5.909,3.28 c 6.966,0.611 16.798,5.584 21.421,10.83 -6.546,-2.083 -17.637,-1.657 -24.005,0.922 l -4.542,2.178 3.553,1.517 c 7.98,1.852 19.497,8.879 24.795,15.127 -7.029,-3.177 -19.792,-4.752 -27.378,-3.376 l -6.655,1.612 3.798,2.715 c 9.113,2.25 22.881,10.176 29.403,16.928 -8.106,-3.673 -23.133,-6.106 -31.985,-5.177 l -4.544,2.176 1.829,1.621 c 9.622,1.754 24.688,8.978 32.08,15.386 -8.917,-3.29 -25.26,-5.003 -34.663,-3.633 l 3.515,3.771 c 6.944,0.641 16.786,5.617 21.421,10.83 -6.047,-1.795 -16.383,-1.414 -22.28,0.818 5.631,1.044 13.859,5.614 17.725,9.841 -5.818,-1.77 -15.866,-1.571 -21.609,0.43 5.472,1.227 13.397,5.98 17.057,10.229 -4.543,-1.389 -12.71,-1.715 -17.35,-0.691 4.378,1.312 10.961,5.467 14.031,8.85 l -8.199,-1.064 2.074,2.817 1.829,1.622 1.442,0.952 -1.726,0.104 -1.724,0.104 -1.866,0.631 -1.336,0.773 -1.556,5.805 -5.61,10.376 24.594,34.87 7.502,-4.776 7.926,-6.36 4.369,-1.719 2.904,-1.141 7.271,-2.861 9.576,-1.96 7.256,-5.972 0.668,-0.388 1.868,-0.63 1.197,-0.246 1.196,-0.244 -0.244,-1.198 -4.674,-5.778 -3.129,-3.099 -4.428,-4.581 5.032,0.216 6.615,0.643 7.041,-0.942 -4.57,-4.053 -5.524,-2.612 -4.185,-3.383 15.24,0.122 -8.019,-3.844 -5.909,-3.28 7.182,-1.47 10.064,0.435 c -3.188,-3.485 -10.016,-7.701 -14.56,-8.993 4.641,-1.025 12.808,-0.7 17.351,0.69 -3.755,-4.098 -11.751,-8.607 -17.198,-9.7 5.742,-2.001 15.792,-2.201 21.61,-0.432 -3.858,-4.25 -12.079,-8.814 -17.725,-9.839 5.895,-2.233 16.233,-2.613 22.277,-0.82 -4.737,-3.813 -14.411,-9.402 -20.081,-11.603 5.386,-1.862 15.214,-2.695 20.838,-1.77 l 4.117,-0.593 c -5.759,-3.912 -17.348,-9.758 -23.919,-12.066 7.516,-1.294 21.275,-1.126 28.755,0.352 -5.575,-4.276 -16.796,-9.428 -23.674,-10.869 l 4.646,-0.451 c 7.774,-0.96 20.571,1.415 27.482,5.1 -5.269,-5.321 -16.332,-11.46 -23.634,-13.12 7.235,-1.355 19.037,0.498 25.509,4.007 l 2.254,0.037 -2.213,-2.29 c -3.358,-5.269 -11.326,-11.879 -17.125,-14.203 6.502,-1.461 16.131,0.863 21.252,5.128 l 1.583,0.425 1.338,-0.772 -3.27,-2.574 c -3.911,-2.327 -10.8,-7.479 -14.135,-10.576 5.505,0.087 14.717,2.556 19.526,5.231 l 3.026,1.376 -1.687,-2.147 c -2.695,-4.934 -9.467,-9.032 -15.088,-9.133 6.136,-2.717 15.946,-2.134 21.715,1.292 l 11.61,3.112 4.675,5.779 1.536,11.156 1.468,7.182 -1.952,13.619 -3.883,10.272 -3.28,5.908 -6.487,7.313 -4.512,8.406 -4.243,15.832 0.866,11.546 2.448,11.97 -0.189,11.262 -3.923,12.524 -7.06,17.906 -5.222,11.045 -7.266,14.457 -6.175,12.487 -5.957,7.455 -8.389,10.195 c -14.093,12.432 -25.435,38.446 -24.951,57.233 2.353,14.866 -6.713,31.803 -20.39,38.092 l -8.414,3.968 -9.01,-0.154 -16.4,-2.129 11.704,-73.228 -8.728,-1.206 -11.703,73.227 -12.562,-1.67 c -8.03,-0.716 -18.116,-7.002 -22.297,-13.894 -6.695,-8.573 -20.251,-12.456 -30.469,-8.73 -7.559,4.988 -20.088,5.427 -27.98,0.988 C 14.055,104.449 -9.083,73.991 -15.97,51.155 l -2.242,-8.519 -0.516,-8.623 C -17.852,22.421 -9.327,6.938 0,0"
           inkscape:connector-curvature="0" />
      </g>
      <g
         transform="translate(554.5391,462.0947)"
         id="g4089"
         style="fill:#000000">
        <path
           id="path4091"
           style="fill:#000000;stroke:none"
           d="m 0,0 0.255,-7.285 -0.942,-7.041 -1.997,-7.322 -2.603,-2.959 -6.23,0.025 c -2.583,1.544 -5.676,5.305 -6.693,8.137 -4.01,9.457 0.401,20.376 9.859,24.388 L -2.019,9.64 -0.114,6.757 0,0"
           inkscape:connector-curvature="0" />
      </g>
      <g
         transform="translate(555.3745,499.0859)"
         id="g4093"
         style="fill:#000000">
        <path
           id="path4095"
           style="fill:#000000;stroke:none"
           d="M 0,0 0.283,-1.057 0.707,-2.64 0.99,-3.695 0.886,-5.42 0.782,-7.145 0.01,-8.482 l -0.915,-0.813 -1.054,-0.282 -0.916,-0.809 -1.055,-0.283 -1.441,-0.952 -1.056,-0.283 -1.055,-0.284 -1.441,-0.953 -1.584,-0.423 -0.773,-1.338 -1.442,-0.952 -1.3,-1.48 -1.83,-1.621 -0.915,-0.81 -0.91,-0.811 -0.389,-0.67 -0.913,-0.81 -1.058,-0.282 -1.825,-1.622 -1.583,-0.423 -1.444,-0.953 -1.057,-0.283 -1.58,-0.424 -1.057,-0.282 -1.198,0.244 -1.338,0.772 -0.282,1.056 -0.952,1.442 -0.809,0.915 -0.424,1.583 -0.956,1.442 -0.423,1.584 -1.092,1.968 -1.094,1.97 -0.811,0.914 -0.283,1.055 -0.81,0.914 -0.669,0.388 -0.811,0.913 -0.952,1.441 -0.283,1.056 -0.809,0.914 -0.814,0.914 -1.335,0.775 -0.953,1.441 -0.952,1.441 -0.952,1.441 -0.952,1.442 -0.953,1.442 -1.092,1.971 -1.481,1.301 -1.092,1.969 -1.094,1.969 -1.092,1.97 -1.096,1.969 -1.091,1.971 -1.622,1.826 -1.093,1.971 -0.565,2.111 -0.953,1.441 -0.952,1.442 -0.425,1.584 -0.811,0.914 -0.282,1.054 -1.095,1.971 -0.424,1.583 0.246,1.196 -0.283,1.056 0.104,1.725 0.245,1.197 0.772,1.337 0.389,0.672 0.911,0.808 0.915,0.811 1.442,0.953 1.583,0.424 1.055,0.283 1.725,-0.103 1.198,-0.246 1.197,-0.244 1.338,-0.772 1.197,-0.246 1.337,-0.774 1.867,-0.631 1.479,-1.299 1.34,-0.773 1.339,-0.773 1.479,-1.299 1.339,-0.773 0.809,-0.916 0.811,-0.913 0.811,-0.914 0.953,-1.441 0.809,-0.915 1.34,-0.773 0.808,-0.915 1.34,-0.772 1.196,-0.245 1.724,-0.103 1.056,0.283 0.916,0.81 1.054,0.282 1.442,0.953 1.055,0.284 1.584,0.423 1.583,0.424 1.584,0.424 1.055,0.283 1.725,-0.104 1.056,0.283 1.337,-0.772 1.34,-0.773 0.809,-0.915 1.48,-1.298 0.283,-1.057 0.953,-1.44 0.81,-0.916 0.424,-1.584 0.951,-1.44 0.424,-1.584 0.953,-1.443 0.565,-2.109 1.095,-1.97 0.424,-1.584 1.092,-1.969 L -3.319,8.16 -2.367,6.719 -1.801,4.607 -1.377,3.023 -0.424,1.582 0,0"
           inkscape:connector-curvature="0" />
      </g>
      <g
         transform="translate(473.0254,580.5332)"
         id="g4097"
         style="fill:#000000">
        <path
           id="path4099"
           style="fill:#000000;stroke:none"
           d="M 0,0 -0.425,1.584 -0.707,2.639 -0.99,3.695 -1.273,4.75 -1.697,6.334 -1.98,7.388 l 0.106,1.726 0.242,1.196 0.776,1.338 0.768,1.339 1.444,0.952 0.914,0.811 1.056,0.283 1.056,0.283 0.913,0.811 1.583,0.424 1.582,0.424 1.058,0.283 1.196,-0.246 1.198,-0.245 1.196,-0.244 1.865,-0.632 0.67,-0.385 1.337,-0.774 1.34,-0.773 1.48,-1.3 1.338,-0.772 1.481,-1.301 0.811,-0.914 1.479,-1.3 0.808,-0.915 0.954,-1.441 0.951,-1.442 0.812,-0.914 0.81,-0.914 0.812,-0.914 1.477,-1.301 1.338,-0.772 1.725,-0.104 1.198,-0.245 1.585,0.424 1.582,0.425 1.583,0.424 1.97,1.094 0.913,0.811 1.056,0.283 0.914,0.809 0.915,0.811 1.583,0.425 0.914,0.808 1.443,0.952 0.912,0.812 0.915,0.811 1.442,0.953 0.914,0.81 1.442,0.951 1.442,0.953 0.913,0.809 0.914,0.811 1.725,-0.104 0.528,0.143 1.867,-0.633 0.811,-0.913 0.282,-1.056 0.425,-1.582 0.566,-2.112 0.283,-1.057 0.282,-1.054 0.283,-1.055 0.283,-1.057 0.424,-1.583 0.283,-1.054 0.283,-1.056 0.424,-1.584 0.283,-1.055 0.566,-2.112 0.423,-1.582 0.425,-1.584 0.141,-0.527 -0.632,-1.867 -0.387,-0.668 -0.914,-0.811 -1.056,-0.283 -0.912,-0.812 -2.112,-0.566 -0.914,-0.809 -1.584,-0.424 -2.111,-0.566 -2.11,-0.565 -2.497,-1.236 -2.639,-0.707 -3.166,-0.848 -2.639,-0.707 -2.64,-0.707 -2.639,-0.707 -2.112,-0.567 -2.108,-0.564 -1.585,-0.425 -1.057,-0.283 -1.58,-0.423 -1.199,0.244 -1.724,0.103 -1.197,0.246 -1.198,0.245 -1.338,0.773 -0.811,0.912 -0.809,0.915 -1.339,0.773 -0.811,0.915 -1.198,0.243 -1.336,0.774 -0.67,0.386 -1.339,0.773 -0.669,0.385 -1.338,0.773 -1.724,0.105 -1.338,0.773 -1.197,0.245 -0.668,0.386 -1.339,0.773 -0.67,0.385 -0.812,0.915 -0.81,0.913 -0.811,0.914 -0.81,0.915 L 4.901,-7.735 3.952,-6.296 3.138,-5.381 2.186,-3.938 1.378,-3.023 1.096,-1.969 0.282,-1.055 0,0"
           inkscape:connector-curvature="0" />
      </g>
      <g
         transform="translate(657.2568,1164.8525)"
         id="g4101"
         style="fill:#000000">
        <path
           id="path4103"
           style="fill:#000000;stroke:none"
           d="m 0,0 c -8.077,4.131 -20.572,3.161 -27.913,-2.167 -19.004,-14.289 -39.603,-46.409 -44.662,-69.64 l -1.454,-8.511 0.493,-8.809 c 1.745,-11.421 11.356,-26.146 21.105,-32.341 l 3.299,-4.487 2.575,-4.225 1.778,-6.402 2.304,-13.99 4.089,-11.351 4.188,-7.689 0.692,-1.484 22.456,-45.574 9.956,-29.103 3.034,-5.213 3.528,-4.982 3.727,-6.7 2.9,-10.095 1.55,-5.909 3.99,-5.971 5.244,-4.788 4.818,-2.574 7.552,-9.735 4.451,-6.964 9.202,-11.979 8.543,-9.275 8.148,-5.841 4.85,-1.354 3.398,-0.826 8.579,0.986 8.38,2.705 10.098,2.9 13.858,6.462 5.446,2.54 c 3.762,1.324 8.853,5.373 10.99,8.74 l -16.134,-0.293 c -0.138,-0.064 -0.298,-0.003 -0.361,0.132 -0.064,0.137 -0.008,0.3 0.13,0.364 5.975,1.488 14.256,7.021 17.918,11.97 -6.187,-2.597 -17.052,-3.205 -23.492,-1.311 6.74,1.232 15.999,6.934 20.13,12.399 -6.297,-2.495 -17.266,-2.873 -23.721,-0.819 6.954,1.172 16.42,6.97 20.625,12.632 -6.414,-2.645 -17.602,-3.13 -24.217,-1.049 l 5.475,3.759 c 6.959,1.169 16.423,6.964 20.628,12.632 -6.303,-2.522 -17.264,-2.901 -23.723,-0.819 l -4.85,1.355 3.234,2.111 c 7.759,2.477 18.65,10.355 23.429,16.951 -6.765,-3.698 -19.358,-6.199 -27.023,-5.37 l -6.564,1.157 3.497,2.836 c 8.857,2.936 21.92,11.854 27.886,19.03 -7.81,-4.237 -22.6,-7.737 -31.48,-7.448 l -4.849,1.355 1.518,1.913 c 9.473,2.527 23.931,10.967 30.789,17.973 -8.447,-3.984 -24.329,-7.124 -33.658,-6.654 l 2.809,4.319 c 6.931,1.2 16.403,7.003 20.624,12.631 -6.071,-2.423 -16.726,-2.923 -22.999,-1.083 5.785,1.379 13.963,6.586 17.658,11.246 -5.846,-2.357 -16.185,-2.982 -22.274,-1.345 5.41,1.553 13.04,6.79 16.436,11.28 -4.404,-1.707 -12.482,-2.638 -17.157,-1.975 4.301,1.635 10.62,6.277 13.464,9.894 l -8.118,-1.977 2.047,3.366 1.519,1.91 1.485,0.693 -1.946,0.297 -1.718,-0.195 -1.945,0.297 -1.682,1.023 -2.045,5.675 -6.331,9.701 9.431,15.755 1.577,2.638 11.01,18.39 7.454,-4.357 8.414,-5.117 14.778,-4.559 10.227,-1.255 7.424,-5.578 1.22,-0.033 1.453,-0.528 1.22,-0.034 1.449,-0.527 -0.032,-1.222 -4.554,-5.739 -2.541,-3.595 -4.293,-5.017 5.147,0.593 5.908,1.549 7.323,-0.2 -3.793,-4.782 -5.214,-3.033 -3.763,-3.563 14.684,0.821 -7.195,-3.958 -5.975,-3.991 7.558,-0.695 9.568,1.449 c -2.835,-3.875 -9.266,-8.85 -13.729,-10.62 4.806,-0.517 12.998,0.752 17.422,2.701 -3.395,-4.485 -11.029,-9.723 -16.434,-11.28 5.924,-1.615 16.046,-1.096 21.776,1.116 -3.486,-4.64 -11.332,-9.974 -16.929,-11.51 6.087,-1.636 16.425,-1.01 22.269,1.347 -4.441,-4.18 -13.677,-10.518 -19.172,-13.161 5.445,-1.529 15.234,-1.796 20.754,-0.565 l 4.65,0.362 c -5.527,-4.551 -16.835,-11.574 -23.363,-14.512 7.666,-0.712 21.493,0.546 28.903,2.631 -5.397,-4.584 -16.439,-10.303 -23.297,-12.068 l 5.61,-0.399 c 7.724,-0.179 20.126,3.357 26.595,7.581 -4.874,-5.691 -15.465,-12.603 -22.637,-14.774 7.279,-0.868 18.875,1.754 25.077,5.669 l 2.209,0.427 -1.783,-2.64 c -2.902,-5.672 -10.373,-13.078 -16.073,-15.93 6.633,-0.779 16.026,2.507 20.725,7.252 l 1.978,0.922 0.959,-0.756 -2.775,-3.104 c -3.677,-2.744 -10.027,-8.64 -13.037,-12.102 5.296,0.749 13.933,4.207 18.282,7.318 l 3.464,1.616 -1.779,-2.639 c -2.251,-4.992 -8.519,-9.541 -13.961,-10.124 6.327,-2.132 15.969,-0.629 21.346,3.325 l 11.353,4.088 4.059,5.507 0.794,11.221 0.697,7.553 -2.572,13.264 -4.846,10.393 -3.758,5.481 -7.389,6.798 -5.409,7.722 -4.712,15.278 -0.66,11.745 0.828,12.44 -0.917,11.021 -4.55,12.339 -8.079,17.325 -6.561,10.2 -8.181,13.66 -7.486,12.175 -6.894,7.032 -9.037,9.044 c -14.935,11.305 -28.252,36.337 -29.282,55.042 1.215,15.2 -9.311,31.453 -23.678,36.563 L 97.478,35.21 87.942,34.982 72.201,31.257 89.535,-40.808 80.922,-43.014 63.358,29.544 50.82,26.711 C 42.711,25.309 33.013,18.062 29.369,10.683 23.384,1.758 10.32,-2.995 0,0"
           inkscape:connector-curvature="0" />
      </g>
      <g
         transform="translate(726.7236,908.4053)"
         id="g4105"
         style="fill:#000000">
        <path
           id="path4107"
           style="fill:#000000;stroke:none"
           d="m 0,0 1.879,-2.737 1.02,-7.359 0.79,-6.864 -0.2,-7.323 -1.422,-7.291 -2.772,-3.101 -5.873,-0.327 c -2.487,1.236 -5.731,4.459 -6.979,6.94 -5.155,8.962 -2.07,20.404 6.89,25.559 L 0,0"
           inkscape:connector-curvature="0" />
      </g>
      <g
         transform="translate(664.7119,972.8955)"
         id="g4109"
         style="fill:#000000">
        <path
           id="path4111"
           style="fill:#000000;stroke:none"
           d="m 0,0 0.991,0.462 1.947,-0.297 0.725,-0.266 1.22,-0.032 1.453,-0.529 1.222,-0.032 1.945,-0.3 1.682,-1.021 1.452,-0.53 1.683,-1.024 0.955,-0.759 1.684,-1.022 1.451,-0.527 1.187,-1.257 0.958,-0.758 0.461,-0.988 0.957,-0.76 1.186,-1.256 0.958,-0.758 0.955,-0.759 1.452,-0.528 1.222,-0.034 1.22,-0.035 1.714,0.198 0.761,0.957 0.99,0.461 1.485,0.693 0.759,0.957 1.485,0.693 1.716,0.196 1.484,0.692 1.222,-0.031 1.715,0.196 1.221,-0.032 1.221,-0.032 1.449,-0.53 1.19,-1.254 1.187,-1.255 0.462,-0.989 0.956,-0.759 0.692,-1.484 0.693,-1.486 1.187,-1.254 0.693,-1.485 0.692,-1.486 0.923,-1.979 1.418,-1.75 0.692,-1.485 0.923,-1.98 0.924,-1.98 0.692,-1.485 0.923,-1.979 0.692,-1.485 0.693,-1.485 0.693,-1.486 0.692,-1.484 -0.032,-1.22 0.461,-0.99 0.198,-1.716 0.198,-1.716 -0.761,-0.957 -0.757,-0.955 -0.76,-0.959 -0.99,-0.462 -1.484,-0.691 -0.991,-0.462 -0.99,-0.462 -1.484,-0.692 -0.759,-0.956 -1.485,-0.693 -1.256,-1.187 -1.023,-1.682 -1.252,-1.189 -1.519,-1.91 -0.76,-0.958 -0.99,-0.462 -0.759,-0.957 -0.759,-0.956 -0.99,-0.461 -1.75,-1.421 -1.254,-1.185 -1.484,-0.692 -0.992,-0.463 -1.485,-0.692 -1.219,0.032 -1.221,0.035 -0.957,0.759 -0.956,0.759 -0.692,1.485 -0.461,0.989 -1.188,1.256 -0.692,1.483 -0.693,1.486 -1.419,1.75 -0.923,1.978 -0.957,0.759 -0.462,0.992 -0.955,0.759 -0.461,0.989 -0.958,0.758 -0.957,0.761 -0.461,0.99 -1.187,1.254 -0.956,0.759 -1.189,1.254 -0.957,0.758 -0.692,1.485 -1.186,1.257 -1.189,1.252 -1.417,1.749 -1.188,1.253 -1.42,1.749 -1.417,1.75 -1.417,1.749 -0.923,1.98 -1.42,1.75 -1.417,1.748 -1.419,1.75 -0.923,1.979 -1.418,1.75 -0.923,1.98 -1.187,1.253 -0.462,0.99 -0.692,1.486 -0.462,0.99 -0.692,1.484 -0.693,1.485 -0.692,1.485 0.034,1.22 0.031,1.222 0.529,1.452 0.034,1.221 0.757,0.956 0.761,0.957 0.76,0.957 1.254,1.186 L 0,0"
           inkscape:connector-curvature="0" />
      </g>
      <g
         transform="translate(641.7319,1026.0542)"
         id="g4113"
         style="fill:#000000">
        <path
           id="path4115"
           style="fill:#000000;stroke:none"
           d="M 0,0 0.991,0.462 2.475,1.154 3.466,1.616 4.95,2.308 6.17,2.276 7.622,1.748 8.842,1.713 10.294,1.187 11.25,0.425 12.703,-0.1 l 0.955,-0.759 1.452,-0.531 1.683,-1.021 1.187,-1.255 1.683,-1.025 1.188,-1.252 0.956,-0.759 1.187,-1.254 0.957,-0.759 0.462,-0.99 1.186,-1.255 0.957,-0.76 1.683,-1.023 1.451,-0.528 1.452,-0.527 1.716,0.195 1.222,-0.032 1.484,0.692 1.979,0.923 1.254,1.187 0.992,0.462 0.757,0.959 1.485,0.692 0.761,0.956 0.987,0.461 1.256,1.187 0.757,0.958 1.485,0.693 0.761,0.955 1.254,1.188 0.99,0.462 1.254,1.186 1.255,1.188 1.253,1.189 0.99,0.461 0.99,0.462 1.223,-0.035 1.219,-0.033 1.187,-1.252 0.463,-0.992 0.197,-1.716 0.923,-1.98 0.46,-0.989 -0.032,-1.222 0.462,-0.99 0.461,-0.99 0.693,-1.485 0.461,-0.988 0.462,-0.992 -0.033,-1.22 0.693,-1.484 0.924,-1.981 0.692,-1.485 0.461,-0.989 -0.034,-1.221 -0.528,-1.452 -0.034,-1.22 -0.99,-0.462 -0.759,-0.956 -1.485,-0.693 -1.485,-0.693 -0.989,-0.46 -1.485,-0.693 -1.981,-0.923 -1.98,-0.924 -2.474,-1.154 -2.706,-0.659 -2.97,-1.385 -2.475,-1.154 -2.706,-0.659 -2.475,-1.155 -2.475,-1.154 -1.715,-0.197 -1.485,-0.693 -1.22,0.033 -1.485,-0.693 -1.221,0.035 -1.716,-0.198 -1.222,0.033 -1.451,0.528 -0.956,0.76 -0.957,0.758 -0.958,0.76 -1.448,0.528 -0.96,0.759 -1.45,0.529 -0.726,0.265 -0.957,0.758 -1.451,0.529 -0.726,0.264 -1.451,0.527 -1.453,0.528 -1.714,-0.196 -0.958,0.761 -1.219,0.031 -0.959,0.76 -0.956,0.759 -0.726,0.264 -0.958,0.76 -0.954,0.757 -0.462,0.991 -1.186,1.254 -0.462,0.991 -1.189,1.254 -1.187,1.254 -0.461,0.99 -0.463,0.99 -0.461,0.989 -0.461,0.99 -0.693,1.486 -0.462,0.989 -0.462,0.991 -0.461,0.989 -0.461,0.989 -0.693,1.487 0.034,1.219 0.297,1.946 0.528,1.453 1.255,1.189 1.254,1.186 0.99,0.461 0.76,0.956 L 0,0"
           inkscape:connector-curvature="0" />
      </g>
      <g
         transform="translate(773.7627,575.9834)"
         id="g4117"
         style="fill:#000000">
        <path
           id="path4119"
           style="fill:#000000;stroke:none"
           d="m 0,0 c -3.69,16.92 -8.492,49.956 -9.775,67.224 -1.496,6.74 1.379,16.108 6.401,20.844 6.152,8.013 5.333,20.14 -1.836,27.253 -2.178,0.661 -4.885,2.933 -5.916,4.964 -3.205,5.471 -1.365,12.505 4.106,15.711 7.409,4.208 11.177,14.041 8.483,22.121 l -0.476,5.441 8.951,29.292 c 3.201,12.689 16.072,25.869 28.68,29.373 17.25,0.957 41.594,12.631 53.141,25.48 4.113,3.755 8.222,11.701 8.91,17.227 2.107,8.454 1.835,23.378 -0.585,31.747 -2.633,-0.639 -5.908,-3.175 -7.188,-5.563 -0.051,-0.171 -0.161,-0.51 -0.214,-0.679 C 83.084,260.482 51.023,243.982 21.07,253.581 l -11.76,2.81 -5.437,-0.475 -8.067,-1.805 -3.617,-2.507 -4.068,-3.646 -3.875,-5.822 -1.796,-4.54 -3.211,-13.441 -5.76,-21.886 -4.747,-14.669 c -1.363,-5.415 -6.919,-10.136 -12.481,-10.606 -8.219,-1.051 -15.733,4.759 -16.783,12.98 -2.099,5.634 -2.993,15.851 -1.905,21.763 -8.246,-2.678 -14.279,-11.735 -13.57,-20.375 -2.887,-16.687 7.072,-35.801 22.403,-42.994 1.844,-0.639 4.477,-2.562 5.641,-4.128 5.065,-6.096 4.232,-15.148 -1.868,-20.215 -7.989,-3.672 -11.489,-13.129 -7.818,-21.122 0.23,-0.521 0.75,-1.474 1.065,-1.945 l 7.197,-7.048 2.059,-4.753 c -1.695,-42.021 6.142,-119.477 16.221,-160.311 l -0.069,-5.486 -0.662,-4.993 -2.739,-6.272 c -7.375,-4.834 -9.429,-14.737 -4.594,-22.11 0.392,-0.634 1.262,-1.73 1.793,-2.256 l 5.133,-2.292 6.669,-1.061 c 3.304,0.149 7.377,-2.025 9.091,-4.854 3.455,-5.072 2.143,-11.985 -2.928,-15.44 -10.538,-1.49 -17.872,-11.241 -16.379,-21.778 0.234,-2.704 1.963,-6.866 3.717,-8.934 l 8.424,-8.582 3.978,-7.877 2.205,-6.385 1.306,-8.658 -1.197,-17.647 -2.544,-21.058 -4.223,-20.652 -4.959,-18.528 -8.737,-25.435 -8.273,-18.266 -8.907,-17.227 c -2.165,-10.982 -12.855,-19.717 -24.05,-19.648 l -5.746,-3.243 -4.069,-3.646 -11.98,-19.688 -1.796,-4.543 0.143,-1.633 4.14,-3.475 38.881,-24.559 26.353,43.424 7.003,-4.867 -25.809,-43.375 39.425,-24.515 3.361,-0.801 1.585,0.686 1.936,2.912 5.675,10.365 1.792,4.542 0.071,5.488 -1.661,6.435 0.067,5.486 1.75,5.088 8.957,16.683 11.839,21.32 10.069,22.809 7.343,22.575 5.76,21.882 3.633,21.152 2.353,23.232 0.013,18.642 -0.528,18.593 -3.613,28.742 -3.155,17.267 -4.052,14.994 -2.749,6.338 -3.102,4.116 -5.372,5.013 c -1.69,1.032 -3.587,3.536 -4.12,5.446 -1.982,5.737 1.066,11.999 6.807,13.977 l 4.803,1.515 c 8.156,0.119 14.672,6.825 14.557,14.984 -0.003,0.136 -0.011,0.409 -0.018,0.544 -0.852,6.535 -6.745,12.601 -13.254,13.642 -8.753,2.782 -17.463,12.355 -19.409,21.328 -5.92,17.133 -14.864,50.85 -18.208,68.666 L 0,0"
           inkscape:connector-curvature="0" />
      </g>
      <g
         transform="translate(911.4482,555.5645)"
         id="g4121"
         style="fill:#000000">
        <path
           id="path4123"
           style="fill:#000000;stroke:none"
           d="m 0,0 c -2.406,-11.096 -8.923,-31.703 -13.338,-42.163 l -0.838,-5.315 0.114,-6.752 c 0.799,-1.393 1.819,-4.127 2.122,-5.704 2.859,-12.497 -4.956,-24.948 -17.454,-27.808 -5.246,-3.263 -6.849,-10.16 -3.584,-15.402 1.314,-2.414 4.646,-4.706 7.37,-5.069 l 6.794,-2.14 c 1.863,-0.757 4.363,-2.916 5.387,-4.645 4.134,-6.162 2.489,-14.508 -3.67,-18.641 -15.082,-11.955 -23.846,-36.8 -19.6,-55.574 l 1.152,-21.177 2.413,-17.446 2.94,-17.307 4.56,-19.13 2.754,-6.047 2.467,-4.993 5.67,-6.396 c 3.939,-4.898 4.674,-13.277 1.642,-18.785 -5.699,-5.963 -5.656,-15.549 0.095,-21.461 12.792,-8.17 29.046,-27.53 34.88,-41.542 12.938,-19.06 39.18,-24.655 58.77,-12.523 5.401,1.443 15.466,2.247 21.033,1.68 4.158,-0.129 10.823,-2.31 14.254,-4.664 10.173,-5.307 21.889,-19.032 25.542,-29.906 -2.828,-1.642 -7.407,-1.601 -10.204,0.093 l -8.695,5.019 c -19.48,9.769 -43.194,1.898 -52.96,-17.583 -1.896,-2.138 -5.984,-4.993 -8.646,-6.039 -14.141,-6.331 -30.735,0.004 -37.065,14.145 -3.623,10.049 -14.706,15.256 -24.756,11.631 -7.852,-2.559 -13.515,-11.188 -12.739,-19.413 -1.03,-4.905 0.489,-12.508 3.329,-16.639 -8.014,2.497 -17.238,11.062 -20.32,18.868 -2.852,10.242 0.188,25.639 6.714,34.027 6.091,6.628 5.656,16.938 -0.969,23.028 -1.102,1.111 -3.431,2.584 -4.905,3.104 l -3.588,0.735 -5.701,0.169 c -0.77,0.035 -2.147,0.33 -2.862,0.617 -5.834,2.079 -8.873,8.492 -6.793,14.326 4.696,4.697 4.694,12.311 -0.005,17.008 -2.362,2.632 -7.089,4.136 -10.539,3.346 l -3.204,1.405 c -7.154,3.39 -10.203,11.94 -6.814,19.094 l 7.621,11.655 1.611,6.651 -0.36,5.557 -7.555,23.985 -4.884,22.438 -4.711,28.139 -1.612,25.012 0.108,24.907 -2.261,8.439 -2.89,6.576 -4.719,4.956 -6.203,6.257 c -2.208,2.669 -3.488,7.716 -2.814,11.116 1.145,8.381 8.862,14.246 17.244,13.105 l 4.608,1.799 c 5.367,3.025 7.27,9.832 4.246,15.199 -0.446,0.873 -1.539,2.23 -2.298,2.85 l -5.775,4.672 c -0.035,0.037 -0.108,0.111 -0.145,0.149 -5.5,5.687 -5.354,14.755 0.333,20.257 l 4.956,4.719 2.88,1.904 3.371,4.296 2.035,5.069 c 6.525,21.143 11.312,60.877 9.999,82.968 -0.333,21.901 -17.188,45.338 -37.848,52.62 l -8.272,3.438 -17.738,7.121 -0.952,1.44 0.208,3.448 19.118,44.703 46.712,-20.28 3.437,8.274 -46.569,19.751 18.489,42.834 1.297,1.48 1.445,0.953 c 10.128,-1.144 20.556,-9.95 23.383,-19.743 l 3.383,-4.183 7.499,-4.777 68.848,-29.048 c 8.186,-4.528 12.314,-15.236 9.282,-24.086 l -2.564,-5.21 C 13.939,102.524 2.481,68.443 7.21,43.63 6.452,33.131 3.271,13.268 0.718,3.055 L 0,0"
           inkscape:connector-curvature="0" />
      </g>
      <g
         transform="translate(872.4229,1065.541)"
         id="g4125"
         style="fill:#000000">
        <path
           id="path4127"
           style="fill:#000000;stroke:none"
           d="m 0,0 c -3.91,13.769 -18.43,27.531 -32.39,30.695 -5.801,3.515 -12.532,12.052 -14.606,18.509 -7.941,20.575 2.301,43.692 22.873,51.633 l 103.514,32.602 c 16.13,4.438 32.924,-4.984 37.541,-21.063 l 2.538,-5.443 -72.165,-20.996 2.704,-8.382 72.163,20.997 2.935,-8.877 c 2.076,-7.539 9.967,-12.969 17.749,-12.214 l 77.635,6.676 c 3.271,0.374 7.599,-1.443 9.619,-4.042 4.299,-4.932 3.786,-12.415 -1.142,-16.715 l -1.75,-1.417 -54.259,-45.189 C 166.432,11.522 164.855,1.663 169.423,-5.36 l 3.726,-6.701 -64.283,-36.605 4.682,-7.457 63.789,36.374 3.462,-7.425 c 7.499,-10.429 5.672,-25.515 -4.101,-33.851 l -6.271,-5.938 -13.892,-7.683 -87.02,-46.002 c -6.734,-3.629 -18.62,-4.833 -25.946,-2.628 C 22.2,-118.2 8.991,-96.764 14.068,-75.395 l 4.558,14.778 1.222,9.01 -1.286,6.63 -2.01,6.898 -4.813,11.616 -2.769,5.938 91.701,38.544 -3.692,7.919 L 5.276,-12.605 1.194,-2.853 0,0"
           inkscape:connector-curvature="0" />
      </g>
      <g
         transform="translate(908.6885,413.8623)"
         id="g4129"
         style="fill:#000000">
        <path
           id="path4131"
           style="fill:#000000;stroke:none"
           d="m 0,0 -1.904,-21.763 44.614,-3.903 -0.762,-8.705 -44.613,3.904 -9.494,-102.238 76.994,-16.057 c 11.594,-2.202 22.776,5.415 24.98,17.009 0.053,0.271 0.139,0.802 0.175,1.074 l 1.992,10.242 -50.667,9.916 1.85,8.612 50.669,-9.917 1.752,7.522 2.015,4.208 c 2.815,4.851 9.779,10.001 15.239,11.278 l 5.326,4.466 3.788,5.699 c 2.063,4.612 2.515,12.648 0.979,17.458 l -3.018,15.618 -41.099,-12.306 -2.007,8.401 59.67,17.807 c 13.174,3.113 27.381,16.169 31.598,29.03 5.325,14.636 2.085,36.91 -7.19,49.424 l -6.548,6.604 -8.23,6.202 -9.462,4.664 -47.297,23.326 3.434,7.925 35.71,-17.927 5.4,11.587 c 6.429,10.335 3.758,24.494 -5.993,31.774 l -8.275,5.659 -4.467,5.324 -1.347,3.408 -0.66,4.992 -0.022,6.032 -47.856,-1.842 -0.328,8.799 48.402,1.797 0.007,12.607 c -0.409,11.662 -10.195,20.786 -21.858,20.379 -0.546,-0.013 -1.601,-0.104 -2.141,-0.187 L 16.775,185.479 7.827,83.195 51.896,79.341 51.135,70.633 7.065,74.487 2.665,30.468 47.279,26.565 46.518,17.859 1.904,21.763 0.274,3.138 0,0"
           inkscape:connector-curvature="0" />
      </g>
      <g
         transform="translate(173.3159,1112.2559)"
         id="g4133"
         style="fill:#000000">
        <path
           id="path4135"
           style="fill:#000000;stroke:none"
           d="m 0,0 c -6.903,8.302 -9.895,23.531 -6.644,33.827 0.296,1.711 1.519,4.453 2.594,5.815 10.218,13.785 7.33,33.246 -6.455,43.464 -4.454,3.724 -13.133,6.524 -18.922,6.107 l -13.016,-0.447 7.217,-123.626 -9.081,-0.357 -6.461,123.488 -21.608,-2.462 C -87.052,85 -106.173,74.331 -114.566,62.266 c -6.341,-8.079 -12.856,-24.19 -13.91,-34.408 l -3.442,-28.412 -2.188,-23.534 -1.386,-25.638 -0.263,-34.854 1.304,-37.091 2.154,-27.829 1.611,-10.874 1.568,-8.903 2.106,-12.526 3.355,-7.652 3.623,-6.128 5.413,-4.877 6.133,-3.042 5.636,-1.386 6.668,0.002 5.278,1.027 6.31,2.419 4.474,3.132 10.064,10.382 7.157,5.012 7.785,4.115 6.623,1.973 6.934,1.521 6.981,-0.445 8.501,-0.717 11.455,-3.979 5.144,0.27 5.281,1.029 2.996,1.433 4.163,3.58 3.396,3.713 2.461,5.057 0.493,5.01 -0.583,5.593 -2.236,5.101 -9.535,12.659 -2.417,6.309 -1.026,5.28 0.491,5.012 2.994,8.098 2.775,4.609 4.474,3.132 5.995,2.865 4.068,0.85 10.158,-0.222 5.282,1.03 4.967,1.478 4.782,2.684 5.193,4.966 3.801,5.998 1.702,5.191 0.49,5.011 -0.943,14.675 -44.338,-2.379 -0.494,8.322 44.338,2.38 -0.447,6.352 -0.359,9.083 c 0.069,6.058 -4.06,13.666 -9.176,16.911 -2.073,1.73 -6.157,3.173 -8.856,3.132 -9.698,-0.112 -22.591,6.155 -28.494,13.845 L 0,0"
           inkscape:connector-curvature="0" />
      </g>
      <g
         transform="translate(939.7607,724.438)"
         id="g4137"
         style="fill:#000000">
        <path
           id="path4139"
           style="fill:#000000;stroke:none"
           d="m 0,0 c 9.202,-5.638 16.931,-19.095 17.165,-29.881 0.178,-1.781 -0.275,-4.854 -0.959,-6.509 -5.387,-16.354 3.502,-33.984 19.857,-39.374 5.477,-2.168 14.708,-2.07 20.136,0.212 l 11.661,4.795 -45.352,115.226 8.03,3.177 45.002,-114.812 19.76,8.738 c 13.731,5.449 28.508,21.726 32.607,35.917 3.53,9.507 4.845,26.645 2.812,36.581 l -6.041,28.438 -5.324,23.339 -6.793,24.242 -10.674,33.111 -12.848,34.847 -11.343,25.417 -4.929,10.123 -3.944,8.099 -6.398,11.027 -5.267,6.277 -5.4,4.733 -6.372,2.495 -6.86,1.377 -5.451,-0.299 -6.775,-2.12 -4.887,-2.673 -5.44,-4.566 -2.712,-4.413 -6.532,-12.609 -4.937,-7.709 -5.926,-5.685 -5.787,-4.144 -6.141,-3.726 -6.778,-2.125 -8.663,-1.564 -12.025,-0.112 -4.821,-1.905 -4.47,-2.323 -2.159,-2.524 -3.129,-4.767 -1.942,-4.48 -0.89,-5.738 1.484,-5.17 2.324,-4.467 3.511,-4.183 12.758,-9.258 4.983,-5.087 1.903,-4.82 1.486,-5.17 0.028,-8.531 -2.008,-5.249 -2.713,-4.416 -5.438,-4.563 -2.861,-1.69 -9.99,-3.389 -4.468,-2.323 -4.534,-3.093 -3.48,-4.345 -3.618,-5.886 -1.375,-6.861 -0.118,-5.802 1.132,-4.753 5.431,-13.266 41.341,16.153 3.175,-8.033 -40.991,-16.571 1.835,-5.587 3.526,-8.45 c 1.808,-5.787 8.087,-11.742 13.961,-13.238 2.553,-1.07 7.012,-1.281 9.652,-0.458 9.114,3.207 23.311,1.433 31.355,-3.921 L 0,0"
           inkscape:connector-curvature="0" />
      </g>
      <g
         transform="translate(1073.3955,263.3037)"
         id="g4141"
         style="fill:#000000">
        <path
           id="path4143"
           style="fill:#000000;stroke:none"
           d="m 0,0 c -2.983,17.882 7.624,38.686 23.851,46.771 l 12.358,6.108 c 30.403,13.419 84.571,18.107 116.829,10.117 l 25.855,-5.466 c 6.316,-1.531 12.68,2.345 14.211,8.661 0.556,1.82 0.405,4.898 -0.323,6.654 l -2.02,3.058 -2.091,1.836 c -22.774,14.318 -66.275,26.184 -93.169,25.415 l -6.568,0.639 -6.966,2.131 -5.402,3.748 c -8.613,16.324 -29.986,26.419 -48.063,22.704 l -28.697,-9.288 c -9.718,-2.052 -15.934,-11.593 -13.882,-21.31 0.094,-0.482 0.34,-1.4 0.501,-1.867 l 2.997,-11.189 35.063,9.395 2.199,-8.206 -34.589,-9.669 C -25.633,73.601 -45.175,53.13 -50.986,35.114 l -6.523,-18.939 -3.549,-6.147 -4.697,-4.857 -5.843,-3.564 -29.788,-11.181 -16.283,-6.364 c -12.35,-5.544 -20.216,-20.625 -17.698,-33.927 2.833,-12.125 15.046,-22.546 27.466,-23.424 l 42.484,2.589 11.991,0.012 6.97,-2.129 5.131,-4.226 c 12.751,-23.372 44.613,-41.483 71.219,-40.489 l 39.101,3.282 1.181,-8.879 -35.646,-2.754 2.109,-13.829 c 0.922,-6.289 6.658,-12.41 12.876,-13.741 l 5.077,-1.038 6.841,-0.167 23.851,1.996 c 14.722,0.377 29.352,12.115 32.907,26.407 -0.014,7.958 5.354,18.237 11.888,22.776 l 24.512,12.963 22.42,14.806 13.668,11.659 13.269,13.151 6.61,8.165 2.457,4.257 c 2.983,5.195 1.194,11.824 -3.998,14.809 -2.976,1.916 -7.788,1.926 -10.774,0.023 l -21.474,-15.347 -13.449,-8.001 c -22.557,-16.211 -66.245,-29.962 -94.022,-29.593 -0.57,-0.124 -1.694,-0.338 -2.269,-0.433 -28.063,-4.699 -54.625,14.238 -59.327,42.302 l -1.924,8.68 -39.667,-8.632 -1.926,8.682 40.14,8.357 L 0.743,-3.025 0,0"
           inkscape:connector-curvature="0" />
      </g>
      <g
         transform="translate(1202.7949,941.2715)"
         id="g4145"
         style="fill:#000000">
        <path
           id="path4147"
           style="fill:#000000;stroke:none"
           d="m 0,0 c -8.436,4.551 -25.161,11.143 -34.43,13.574 l -4.853,-0.558 c -5.745,-1.131 -9.487,-6.705 -8.357,-12.45 0.128,-0.807 0.618,-2.192 1.026,-2.901 l 4.102,-7.885 c 0.215,-0.447 0.577,-1.336 0.74,-1.802 4.305,-11.962 -1.897,-25.151 -13.858,-29.457 l -9.94,-3.357 c -10.282,-3.992 -15.376,-15.562 -11.383,-25.843 0.885,-2.709 3.66,-6.532 5.96,-8.216 3.418,-1.122 8.033,-4.686 9.973,-7.716 7.263,-10.019 5.028,-24.03 -4.992,-31.293 l -9.15,-18.756 -5.231,-14.372 c -8.112,-20.372 -12.711,-57.82 -9.774,-79.551 -0.073,-4.08 -3.166,-8.62 -6.937,-10.18 -6.065,-2.862 -13.302,-0.268 -16.162,5.797 l -2.425,6.117 -3.775,13.576 -3.775,19.974 -1.209,12.645 -0.414,22.817 0.94,15.35 2.524,16.52 3.738,16.655 2.476,8.399 c 1.571,10.579 -5.734,20.431 -16.315,22.001 -2.094,0.415 -5.77,0.207 -7.806,-0.436 -1.031,-0.035 -2.945,0.16 -3.953,0.401 -10.404,2.155 -17.092,12.343 -14.934,22.746 4.36,8.885 1.378,20.568 -6.713,26.275 l -19.781,9.525 -1.167,1.585 0.047,1.729 1.121,3.079 21.198,42.266 75.997,-38.706 4.014,7.841 -75.999,38.704 20.449,40.214 2.712,4.245 1.586,1.167 1.728,-0.045 5.13,-1.867 c 9.34,-6.886 22.492,-4.892 29.375,4.445 0.52,0.678 1.373,2.053 1.751,2.823 4.437,5.662 13.725,9.039 20.763,7.55 6.116,-1.557 12.457,-7.78 14.136,-13.861 l 3.403,-8.215 3.17,-4.06 4.06,-3.222 5.411,-4.292 16.514,-8.917 c 23.59,-14.667 68.217,-25.774 95.93,-23.871 10.638,-0.357 21.993,7.403 25.526,17.44 1.842,3.026 6.178,5.183 9.698,4.831 6.103,-0.305 10.809,-5.495 10.506,-11.6 -2.721,-18.84 -15.217,-49.406 -26.474,-64.757 l -6.817,-9.144 -10.734,-13.529 -4.622,-4.71 -4.62,-4.713 c -2.017,-1.893 -5.909,-2.991 -8.614,-2.437 -5.99,0.877 -10.132,6.442 -9.254,12.428 l 1.308,9.987 c 0.126,7.367 -4.903,16.507 -11.192,20.346 C 24.521,-14.171 10.584,-5.28 2.721,-1.402 L 0,0"
           inkscape:connector-curvature="0" />
      </g>
      <g
         transform="translate(1192.2363,646.2295)"
         id="g4149"
         style="fill:#000000">
        <path
           id="path4151"
           style="fill:#000000;stroke:none"
           d="m 0,0 c 8.717,-0.005 25.057,-1.803 33.568,-3.69 7.295,-0.873 15.603,-7.081 18.5,-13.837 l 3.815,-9.771 c 1.959,-5.698 8.165,-8.731 13.861,-6.777 2.549,0.711 5.441,3.34 6.395,5.806 l 1.855,6.497 1.856,6.494 3.938,16.647 2.15,11.374 c 3.351,18.659 1.165,51.472 -4.637,69.52 -2.372,5.588 -8.824,8.191 -14.412,5.818 -3.201,-1.164 -6.121,-4.847 -6.53,-8.229 C 61.802,69.17 55.09,57.058 45.267,52.617 21.267,38.815 -23.604,29.211 -51.153,31.98 l -19.505,1.172 -6.297,1.11 -5.549,1.312 -4.528,1.983 -6.476,6.262 c -4.32,4.764 -12.94,7.476 -19.213,6.045 -6.848,-1.869 -13.517,-9.022 -14.907,-15.986 0.004,-0.886 -0.169,-2.553 -0.352,-3.419 -2.136,-11.45 -13.151,-18.998 -24.6,-16.86 l -4.947,-0.925 -1.493,-0.403 -1.294,-1.144 -0.565,-5.35 -0.74,-44.975 85.077,-1.192 -0.037,-8.808 -85.079,1.191 -0.891,-47.414 0.528,-3.458 1.145,-1.291 1.421,-0.821 22.016,-0.101 c 9.507,-1.546 17.236,-10.492 17.386,-20.126 2.364,-10.383 12.694,-16.885 23.077,-14.528 1.094,0.216 3.041,0.89 4.031,1.399 1.512,1.409 4.65,3.133 6.646,3.659 10.145,3.184 20.951,-2.456 24.136,-12.598 l 2.196,-8.207 3.653,-16.615 5.144,-16.213 5.766,-14.048 10.271,-20.436 6.458,-10.665 12.455,-16.652 9.169,-10.338 5.128,-4.224 c 5.277,-4.077 12.863,-3.106 16.944,2.171 2.5,2.912 3.281,8.117 1.748,11.636 -12.214,18.211 -24.588,53.854 -26.284,75.716 l -1.763,15.521 -0.246,20.324 c 6.192,10.713 2.52,24.417 -8.192,30.609 -3.152,2.071 -9.055,3.429 -12.795,2.948 -3.081,0.467 -7.546,2.849 -9.651,5.145 -7.763,7.563 -7.926,19.992 -0.363,27.755 l 7.281,7.149 c 8.87,9.206 8.599,23.86 -0.604,32.735 -0.309,0.306 -0.94,0.871 -1.278,1.141 l -7.021,5.319 c -0.74,0.481 -1.871,1.581 -2.371,2.31 -3.49,4.696 -2.517,11.334 2.177,14.829 l 4.549,2.417 c 9.346,1.899 27.179,3.362 36.714,3.011 L 0,0"
           inkscape:connector-curvature="0" />
      </g>
      <g
         transform="translate(1261.9365,513.0381)"
         id="g4153"
         style="fill:#000000">
        <path
           id="path4155"
           style="fill:#000000;stroke:none"
           d="m 0,0 5.011,4.063 -25.935,30.945 6.206,5.875 26.45,-31.132 6.022,5.366 8.308,6.857 7.56,4.8 9.426,3.548 c 17.577,5.945 42.553,0.24 55.803,-12.757 l 12.828,-11.061 9.422,-9.242 12.732,-14.514 c 18.938,-20.704 37.593,-62.833 40.197,-90.769 l 2.886,-20.81 1.818,-2.988 2.706,-2.146 1.541,-0.56 c 4.886,-2.413 10.806,-0.405 13.215,4.484 0.594,1.061 1.073,3.068 1.017,4.282 5.653,35.77 -6.866,91.587 -27.26,121.513 l -8.954,13.722 -7.509,9.707 -14.925,16.476 -7.419,6.768 -15.535,13.207 -20.712,13.352 -11.431,5.325 -9.562,4.062 c -12.19,5.897 -34.134,8.497 -47.358,5.612 -2.084,-0.232 -5.557,-1.451 -7.328,-2.566 -8.912,-5.368 -22.082,-3.93 -29.628,3.23 l -37.134,32.115 c -12.747,9.929 -31.132,7.645 -41.061,-5.102 -7.91,-9.512 -8.271,-25.011 -0.806,-34.874 l 5.179,-6.534 16.695,-27.581 5.456,-8.962 1.538,-6.952 -0.653,-4.992 c -7.182,-11.137 -13.336,-32.52 -13.172,-45.772 4.179,-84.453 74.487,-161.712 158.173,-173.808 l 10.5,-1.499 11.711,-1.356 c 5.949,-1.204 11.746,2.639 12.953,8.589 1.175,5.454 -2.186,11.108 -7.533,12.686 -52.933,9.615 -112.295,58.405 -131.97,108.48 -12.125,23.634 -4.055,54.336 18.121,68.958 L 0,0"
           inkscape:connector-curvature="0" />
      </g>
      <g
         transform="translate(1305.8809,794.4341)"
         id="g4157"
         style="fill:#000000">
        <path
           id="path4159"
           style="fill:#000000;stroke:none"
           d="m 0,0 c -3.504,-21.424 10.423,-43.429 31.282,-49.437 43.331,-26.242 117.38,-31.328 163.89,-11.25 l 5.282,1.029 c 2.636,0.356 6.314,-0.943 8.138,-2.877 4.301,-4.046 4.502,-10.814 0.455,-15.106 l -10.471,-6.001 -9.125,-5.054 -19.818,-7.878 -7.965,-2.91 -23.666,-5.239 -19.328,-2.865 -14.231,-0.63 -12.438,0.625 -20.806,2.101 -12.929,2.278 -20.135,5.904 -15.124,5.414 -15.929,7.513 -16.736,9.617 -15.572,11.764 c -16.264,11.497 -30.893,37.576 -32.223,57.448 l -1.744,3.443 -2.821,4.027 -4.16,3.085 -48.279,17.534 c -15.414,3.825 -25.36,19.471 -22.288,35.053 3.118,16.476 19.002,27.304 35.479,24.187 l 46.622,-4.693 c 7.022,-0.925 15.8,3.133 19.64,9.088 12.021,18.498 40.188,35.2 62.188,36.875 43.369,10.089 110.004,-3.089 146.263,-28.93 20.237,-11.445 48.012,-39.504 59.25,-59.856 2.836,-5.261 0.957,-11.935 -4.205,-14.945 l -4.968,-1.476 -1.207,-0.18 -3.668,1.432 C 190.399,50.792 130.648,79.836 88.264,82.472 L 76.275,83.41 63.701,83.276 49.477,82.646 C 32.169,81.689 14.834,67.477 10.508,50.695 L 8.271,42.462 5.814,30.74 -33.024,39.545 -34.946,30.865 3.131,22.192 0.456,3.249 0,0"
           inkscape:connector-curvature="0" />
      </g>
      <g
         transform="translate(1305.8672,1093.2061)"
         id="g4161"
         style="fill:#000000">
        <path
           id="path4163"
           style="fill:#000000;stroke:none"
           d="m 0,0 0.925,4.947 1.87,5.496 -37.175,11.96 2.67,8.48 37.176,-11.961 2.073,6.242 c 2.595,19.841 20.553,37.78 40.399,40.35 57.34,5.068 132.552,-28.396 167.18,-74.381 3.46,-4.885 10.225,-6.041 15.109,-2.578 2.712,1.706 4.766,5.696 4.576,8.898 l -0.621,2.165 -4.369,7.568 -9.757,15.81 -9.538,12.15 -7.153,9.115 -3.332,2.49 -5.987,6.002 -9.79,8.223 -11.085,9.363 -8.898,5.585 -20.036,11.765 -21.11,9.256 -12.211,3.671 -15.393,3.725 -16.815,2.905 -10.571,0.834 -17.139,0.193 -17.337,-0.552 -9.208,-1.53 -16.646,-3.936 -8.861,-3.223 -11.822,-6.825 -11.478,-8.52 -7.625,-7.554 -3.709,-3.405 -5.001,-2.253 -5.081,-1.041 -5.148,0.18 -12.135,2.452 -34.445,7.231 c -13.971,3.486 -29.279,-4.512 -34.4,-17.969 -4.206,-14.625 3.645,-31.142 17.643,-37.113 l 23.966,-12.019 20.509,-11.494 4.348,-3.163 2.933,-3.984 1.784,-5.273 2.221,-12.595 4.811,-14.879 4.512,-10.008 c 15.848,-24.305 53.234,-53.605 80.626,-63.178 l 14.795,-5.968 15.196,-4.469 12.134,-2.45 c 34.889,-9.531 90.656,-2.154 121.865,16.119 5.106,3.293 6.578,10.094 3.288,15.202 -2.1,3.58 -7.043,5.753 -11.101,4.885 C 135.6,-106.392 57.961,-92.428 15.227,-58.058 l -6.461,5.731 C -2.726,-40.421 -7.131,-18.368 -1.098,-2.959 L 0,0"
           inkscape:connector-curvature="0" />
      </g>
      <g
         transform="translate(1337.9033,203.1094)"
         id="g4165"
         style="fill:#000000">
        <path
           id="path4167"
           style="fill:#000000;stroke:none"
           d="M 0,0 -5.659,13.565 30.683,27.987 27.28,35.83 -9.062,21.41 -13.919,32.615 c -2.547,12.364 -14.26,26.369 -25.974,31.068 l -7.13,1.703 -7.059,0.93 -10.704,-1.713 C -89.212,60.271 -126.069,41.317 -143.802,23.965 L -160.003,9.755 -171.02,-1.677 c -4.326,-4.305 -11.417,-4.42 -15.875,-0.251 -4.664,4.309 -4.952,11.587 -0.643,16.251 13.138,21.179 43.869,52.567 64.767,66.144 20.606,16.251 61.286,31.162 87.516,32.077 19.598,0.242 46.76,-11.846 59.701,-26.566 5.645,-7.383 17.141,-10.69 25.847,-7.431 l 45.276,9.779 c 8.961,1.273 20.472,-3.681 25.704,-11.07 10.091,-12.761 7.928,-31.287 -4.834,-41.377 L 70.755,8.624 66.123,3.952 63.447,-0.932 62.18,-4.147 60.869,-20.155 60.784,-23.65 C 54.968,-58.214 22.626,-91.081 -11.841,-97.461 l -13.581,-4.287 -14.067,-3.169 -19.518,-2.872 -14.687,-0.507 -25.241,0.508 -16.429,1.659 -17.681,2.719 -8.735,2.339 c -4.854,1.044 -9.069,5.848 -9.472,10.802 0.374,5.759 5.273,10.84 11.018,11.428 l 24.823,-0.154 c 30.967,-1.906 79.695,11.693 105.201,29.36 13.485,10.467 18.559,31.241 11.416,46.746 L 0,0"
           inkscape:connector-curvature="0" />
      </g>
      <g
         transform="translate(1478.2832,617.1113)"
         id="g4169"
         style="fill:#000000">
        <path
           id="path4171"
           style="fill:#000000;stroke:none"
           d="m 0,0 c 2.086,17.535 17.835,32.753 35.43,34.235 l 8.796,-0.44 6.991,-1.233 15.851,-4.458 20.659,-8.636 8.671,-4.302 30.088,-18.059 c 5.215,-1.853 10.944,0.873 12.793,6.089 1.233,2.978 0.478,7.313 -1.687,9.7 l -8.448,8.698 -14.97,12.621 C 97.648,51.388 62.764,71.01 39.505,76.22 L 29.286,78.022 C 15.323,79.786 -7.089,75.008 -19.118,67.703 l -3.07,-1.679 -11.671,-9.588 -6.17,-6.678 C -43.582,39.242 -55.268,31.689 -66.316,32.766 l -45.844,4.202 c -16.548,0.182 -30.111,-13.083 -30.295,-29.632 -0.432,-14.359 10.605,-27.643 24.797,-29.849 l 38.22,-12.837 c 5.398,-2.22 11.024,-8.732 12.436,-14.394 1.273,-21.614 17.873,-47.744 36.898,-58.082 24.034,-11.342 66.882,-15.562 92.669,-9.129 l 18.98,3.861 18.92,6.646 9.555,3.861 c 5.717,2.401 8.408,8.985 6.006,14.704 -1.719,4.48 -6.895,7.508 -11.642,6.809 l -6.927,-1.551 -21.577,-2.85 -15.28,-1.742 -19.3,0.63 -13.638,1.296 c -1.539,0.158 -4.419,0.742 -5.898,1.193 -21.701,6.084 -34.362,28.608 -28.276,50.307 l 0.474,2.688 0.128,3.861 1.674,6.359 -38.537,7.904 2.056,8.512 37.998,-7.81 L -0.7,-3.166 0,0"
           inkscape:connector-curvature="0" />
      </g>
      <g
         transform="translate(385.2231,155.4414)"
         id="g4173"
         style="fill:#000000">
        <path
           id="path4175"
           style="fill:#000000;stroke:none"
           d="m 0,0 -11.569,3.341 c -9.044,2.162 -18.13,-3.417 -20.292,-12.461 -0.029,-0.116 -0.079,-0.345 -0.106,-0.46 l -1.588,-13.95 -0.801,-22.957 c -0.108,-1.141 -0.645,-3.161 -1.122,-4.205 -3.507,-8.474 -13.222,-12.501 -21.698,-8.996 l -60,23.584 c -7.475,4.262 -10.225,13.837 -6.152,21.42 l 9.989,11.474 50.503,52.527 32.006,-11.07 2.989,8.212 -30.468,10.508 -8.233,84.366 c -0.183,1.521 0.088,4.212 0.571,5.665 2.454,8.648 11.455,13.673 20.105,11.219 l 35.412,-12.889 21.041,-7.658 c 3.817,-0.371 8.811,-3.308 10.986,-6.468 5.885,-7.552 4.534,-18.446 -3.017,-24.331 L 5.674,90.637 C 1.296,86.754 -0.685,79.182 1.237,73.654 l 1.63,-3.502 3.871,-3.731 4.248,-2.709 39.235,-18.348 C 59.847,39.445 65.401,25.913 62.696,14.939 59.44,-1.045 43.839,-11.363 27.854,-8.104 L 11.571,-3.341 2.964,-0.855 0,0"
           inkscape:connector-curvature="0" />
      </g>
      <g
         transform="translate(1441.2129,299.5859)"
         id="g4177"
         style="fill:#000000">
        <path
           id="path4179"
           style="fill:#000000;stroke:none"
           d="m 0,0 -40.494,-9.495 c -1.456,-0.308 -4.045,-0.237 -5.482,0.153 -7.739,1.736 -12.61,9.412 -10.878,17.151 l 1.802,10.217 5.564,28.413 5.724,26.165 2.467,4.555 c 4.002,5.943 12.26,7.944 18.537,4.498 L -7.034,73.339 4.039,66.948 c 7.295,-3.718 16.222,-0.817 19.939,6.476 0.734,1.289 1.462,3.779 1.543,5.267 l 11.101,34.642 c 3.725,14.364 18.479,23.904 33.105,21.4 16.127,-2.54 27.142,-17.667 24.602,-33.794 L 89.303,63.006 c -0.669,-8.809 5.93,-16.495 14.74,-17.164 0.272,-0.025 0.809,-0.045 1.082,-0.047 l 28.663,2.158 4.937,-0.314 c 0.42,-0.017 1.213,-0.113 1.625,-0.192 7.448,-1.342 12.402,-8.465 11.062,-15.911 l -3.51,-19.901 -9.957,-47.045 c -0.041,-0.134 -0.118,-0.389 -0.164,-0.52 -2.524,-7.5 -10.651,-11.535 -18.154,-9.009 l -5.189,2.024 L 87.07,-22.006 57.834,0.895 49.1,7.98 55.868,40.063 47.263,41.58 40.494,9.498 3.014,0.709 0,0"
           inkscape:connector-curvature="0" />
      </g>
      <g
         transform="translate(1459.417,1041.209)"
         id="g4181"
         style="fill:#000000">
        <path
           id="path4183"
           style="fill:#000000;stroke:none"
           d="m 0,0 7.271,0.589 23.704,0.64 23.85,-2.086 c 2.173,0.336 5.719,-0.289 7.644,-1.344 7.218,-3.445 10.276,-12.089 6.832,-19.305 l -8.272,-14.782 c -9.462,-15.405 -22.22,-46.018 -26.495,-63.585 -10.211,-23.9 0.886,-51.55 24.783,-61.758 22.594,-9.859 49.612,0.016 60.521,22.12 -8.375,-5.207 -24.25,-9.235 -34.095,-8.648 -15.215,0.093 -27.818,12.455 -28.203,27.664 -0.491,1.462 -0.499,3.995 -0.019,5.454 1.485,5.569 7.207,8.875 12.77,7.387 l 4.9,-1.591 6.941,-4.871 4.063,-2.296 8.749,-1.928 c 5.46,-0.769 14.641,0.604 19.64,2.934 -4.945,-0.391 -11.3,2.601 -14.148,6.665 -18.199,9.625 -25.407,32.271 -16.117,50.643 l 9.878,15.417 11.905,16.404 13.37,15.499 c 5.955,9.62 2.985,22.244 -6.631,28.198 -0.591,0.382 -1.774,1.009 -2.419,1.281 l -20.019,6.016 -17.075,4.207 -22.951,3.559 -19.587,2.101 -22.028,0.765 -15.59,-0.963 -11.746,-1.297 -17.265,-2.365 -49.683,-9.612 -1.571,8.668 33.542,6.756 -1.986,8.316 c -0.831,12.459 -11.575,22.228 -24.059,21.876 l -36.55,-5.722 c -13.163,-2.585 -22.74,-15.383 -21.511,-28.741 l 0.434,-3.915 2.849,-16.143 0.786,-4.333 c 2.45,-14.558 16.248,-24.935 30.918,-23.251 L -13.421,-1.088 -3.075,-0.25 0,0"
           inkscape:connector-curvature="0" />
      </g>
      <g
         transform="translate(1525.4668,766.7393)"
         id="g4185"
         style="fill:#000000">
        <path
           id="path4187"
           style="fill:#000000;stroke:none"
           d="m 0,0 19.777,7.37 22.746,6.23 23.57,4.709 c 1.974,0.833 5.501,1.129 7.59,0.638 C 81.721,17.514 87.078,9.832 85.644,1.792 L 81.307,-14.5 c -5.125,-17.299 -9.486,-50.111 -9.059,-68.147 -3.719,-25.746 14.136,-49.635 39.883,-53.357 24.39,-3.715 47.982,12.796 52.847,36.988 -6.787,-7.18 -21.134,-15.133 -30.819,-17.08 -14.997,-3.901 -30.463,5.029 -34.577,19.967 -0.486,0.92 -0.957,2.688 -0.996,3.725 -0.493,5.974 3.945,11.218 9.92,11.713 l 5.03,-0.221 7.751,-3.071 5.217,-1.296 8.797,0.441 c 5.428,0.759 13.832,4.574 17.972,8.157 -4.445,-1.62 -11.12,-0.552 -14.837,2.378 -20.23,4.392 -33.42,24.378 -29.511,44.706 l 5.759,17.654 7.182,19.013 8.991,18.223 c 3.358,10.715 -2.607,22.124 -13.322,25.484 -0.592,0.195 -1.752,0.484 -2.365,0.586 L 93.973,52.063 76.285,51.716 52.876,49.252 34.049,45.932 12.185,40.97 -2.496,36.163 -13.947,31.926 -29.958,25.22 -74.822,2.891 l -4.206,8.131 30.657,14.834 -3.574,7.687 c -4.125,11.91 -17.186,18.526 -29.23,14.811 L -115.154,33.49 c -11.828,-5.802 -17.887,-20.443 -13.612,-32.903 l 1.932,-4.65 6.861,-13.763 1.835,-4.113 c 5.958,-13.72 21.992,-20.31 35.875,-14.749 L -2.797,-1.247 0,0"
           inkscape:connector-curvature="0" />
      </g>
      <g
         transform="translate(604.0371,338.5352)"
         id="g4189"
         style="fill:#000000">
        <path
           id="path4191"
           style="fill:#000000;stroke:none"
           d="m 0,0 -25.276,0.893 -25.312,1.273 c -9.389,-0.79 -16.361,-9.045 -15.573,-18.436 0.056,-1.121 0.478,-3.124 0.885,-4.172 l 18.672,-40.621 5.143,-10.017 c 3.688,-7.053 12.611,-10.417 20.042,-7.551 l 1.471,0.908 19.21,15.248 c 0.505,0.512 1.558,1.364 2.164,1.75 7.283,4.918 17.176,3.003 22.094,-4.28 l 12.928,-23.681 7.231,-11.773 c 9.681,-12.122 27.361,-14.098 39.482,-4.415 9.602,7.19 13.354,21.7 8.443,32.643 l -11.493,33.885 c -0.021,0.107 -0.06,0.311 -0.079,0.414 -1.438,8.12 3.977,15.868 12.098,17.305 l 26.861,3.129 c 9.065,2.579 14.322,12.018 11.746,21.08 -0.187,0.729 -0.693,2.058 -1.032,2.726 l -15.682,37.395 -5.757,12.678 C 103.696,64.544 93.375,67.458 85.208,62.894 83.88,62.219 81.81,60.561 80.861,59.408 L 33.053,3.281 45.194,-24.731 37.351,-28.132 25.277,-0.889 3.484,-0.12 0,0"
           inkscape:connector-curvature="0" />
      </g>
      <g
         transform="translate(449.4531,1143.1963)"
         id="g4193"
         style="fill:#000000">
        <path
           id="path4195"
           style="fill:#000000;stroke:none"
           d="m 0,0 12.457,-29.646 30.038,-0.546 -0.545,-8.739 -29.493,1.091 -30.037,-61.714 c -4.267,-9.072 -0.37,-19.887 8.699,-24.154 1.219,-0.634 3.589,-1.355 4.952,-1.516 l 26.766,-0.544 22.388,-0.546 c 9.525,0.114 17.148,7.926 17.031,17.45 0.003,0.424 -0.045,1.244 -0.1,1.664 l -7.648,22.937 c -1.504,9.053 4.609,17.608 13.657,19.117 l 27.309,2.185 10.375,0.547 c 14.512,0.585 25.802,12.829 25.214,27.342 0.092,4.95 -2.706,12.198 -6.097,15.8 -5.07,5.865 -15.737,10.579 -23.487,10.378 l -30.04,3.278 c -0.692,0.022 -2.001,0.199 -2.679,0.362 -9.264,1.995 -15.156,11.127 -13.156,20.39 l 7.643,21.847 c 2.258,8.929 -3.153,17.995 -12.079,20.248 -0.953,0.273 -2.767,0.52 -3.757,0.507 L 26.112,58.283 -2.832,57.738 C -11.604,56.24 -17.497,47.917 -16,39.154 c 0.143,-1.038 0.696,-2.869 1.15,-3.809 L -1.198,2.85 0,0"
           inkscape:connector-curvature="0" />
      </g>
      <g
         transform="translate(1198.3643,1083.105)"
         id="g4197"
         style="fill:#000000">
        <path
           id="path4199"
           style="fill:#000000;stroke:none"
           d="m 0,0 -16.269,14.002 -12.439,9.871 -24.978,-11.047 -3.692,7.92 25.473,11.277 3.319,67.834 -0.161,2.938 -0.199,1.715 -0.89,3.199 -0.429,2.211 -0.463,0.992 -2.142,2.013 c -4.873,4.186 -13.456,5.294 -19.236,2.479 L -92.658,97.698 c -8.21,-4.301 -11.379,-14.444 -7.076,-22.655 0.18,-0.357 0.575,-1.029 0.8,-1.361 l 12.598,-12.805 c 0.64,-0.622 1.694,-1.921 2.171,-2.675 5.709,-8.556 3.404,-20.12 -5.148,-25.832 L -122.74,16.179 c -12.426,-6.797 -16.988,-22.384 -10.187,-34.809 4.24,-8.588 15.254,-14.482 24.754,-13.235 l 6.866,0.792 32.532,10.349 c 0.26,0.087 0.769,0.234 1.038,0.301 9.18,2.343 18.521,-3.201 20.866,-12.383 l 1.385,-12.011 2.372,-11.548 1.385,-2.971 c 0.637,-1.476 2.394,-3.456 3.792,-4.257 3.762,-2.861 10.573,-4.038 15.079,-2.61 L 17.2,-48.73 c 9.055,3.688 13.405,14.018 9.718,23.073 -0.889,2.595 -3.645,6.121 -5.944,7.611 L 2.349,-2.021 0,0"
           inkscape:connector-curvature="0" />
      </g>
      <g
         transform="translate(1466.1084,221.4805)"
         id="g4201"
         style="fill:#000000">
        <path
           id="path4203"
           style="fill:#000000;stroke:none"
           d="m 0,0 7.319,31.878 c 0.327,1.983 1.782,5.063 3.106,6.576 5.532,7.012 15.702,8.211 22.715,2.682 L 66.064,16.744 c 1.417,-0.883 3.39,-2.973 4.189,-4.439 4.276,-6.987 2.079,-16.116 -4.908,-20.392 L 50.038,-21.376 c -6.409,-5.879 -6.84,-15.847 -0.957,-22.26 0.38,-0.433 1.174,-1.186 1.629,-1.54 l 26.035,-20.896 c 8.914,-8.308 10.157,-22.765 2.795,-32.468 -8.084,-11.008 -23.561,-13.377 -34.567,-5.292 l -24.516,14.497 c -6.632,5.204 -16.637,4.491 -22.458,-1.604 l -2.195,-3.134 -6.175,-18.341 -3.182,-6.445 c -0.069,-0.125 -0.219,-0.373 -0.298,-0.498 -4.579,-7.29 -14.201,-9.491 -21.49,-4.909 l -20.267,14.854 -7.023,4.256 -11.007,9.036 c -0.114,0.111 -0.335,0.34 -0.445,0.457 -5.309,5.732 -4.969,14.678 0.764,19.991 l 26.889,16.505 33.651,20.442 23.264,-16.289 5.012,7.159 L -7.32,-31.879 -0.708,-3.092 0,0"
           inkscape:connector-curvature="0" />
      </g>
      <g
         transform="translate(1635.4941,460.2344)"
         id="g4205"
         style="fill:#000000">
        <path
           id="path4207"
           style="fill:#000000;stroke:none"
           d="m 0,0 23.878,21.553 1.94,2.912 c 4.381,5.571 3.882,14.068 -1.125,19.087 l -2.958,2.484 -9.131,4.134 -13.038,4.892 -17.085,7.275 c -7.22,3.486 -15.901,0.456 -19.385,-6.766 -0.419,-0.798 -0.958,-2.362 -1.118,-3.252 l -2.143,-19.374 c -0.015,-1.042 -0.338,-2.931 -0.669,-3.917 -2.596,-8.724 -11.772,-13.69 -20.496,-11.094 l -11.311,3.947 -18.076,6.093 c -14.317,2.921 -28.295,-6.317 -31.211,-20.636 -2.77,-12.347 4.555,-25.698 16.454,-29.994 l 23.499,-11.65 c 0.345,-0.169 0.997,-0.533 1.325,-0.746 7.388,-4.608 9.636,-14.339 5.023,-21.727 l -12.718,-17.56 c -3.805,-6.419 -1.686,-14.704 4.728,-18.511 0.328,-0.202 0.986,-0.543 1.342,-0.693 l 34.755,-15.049 c 7.117,-5.387 17.248,-3.982 22.633,3.133 1.668,1.963 3.158,5.871 3.219,8.446 l -4.766,67.017 -23.85,9.425 3.14,7.949 23.261,-8.927 L -2.369,-2.135 0,0"
           inkscape:connector-curvature="0" />
      </g>
      <g
         transform="translate(1279.6816,443.8047)"
         id="g4209"
         style="fill:#000000">
        <path
           id="path4211"
           style="fill:#000000;stroke:none"
           d="M 0,0 25.173,-14.006 44.944,2.508 50.406,-4.335 30.632,-20.85 35.107,-37.715 47.194,-82.592 c 2.994,-7.551 11.542,-11.241 19.093,-8.245 1.249,0.435 3.254,1.654 4.222,2.566 l 6.707,4.696 22.907,18.708 3.083,4.162 c 2.909,4.279 2.491,10.805 -0.939,14.675 l -9.576,7.964 -8.056,7.694 c -6.204,5.556 -7.102,15.33 -2.014,21.922 L 98.769,7.526 c 11.393,8.712 13.561,25.009 4.848,36.399 C 95.62,54.608 80.181,57.332 69.01,50.027 L 63.193,45.955 47.984,35.305 C 47.758,35.141 47.306,34.853 47.066,34.713 40.558,30.878 32.174,33.045 28.339,39.553 L 21.446,56.061 C 19.602,63.982 11.68,68.908 3.758,67.06 2.428,66.812 0.227,65.88 -0.877,65.095 l -8.502,-5.952 -20.67,-17.137 c -6.984,-3.935 -9.459,-12.786 -5.525,-19.773 0.902,-1.828 3.247,-4.266 5.035,-5.238 L -2.681,1.495 0,0"
           inkscape:connector-curvature="0" />
      </g>
    </g>
  </g>
</svg>
